<?xml version="1.0" encoding="UTF-8"?>
<svg id="Layer_1" xmlns="http://www.w3.org/2000/svg" version="1.1" viewBox="0 0 100 100">
  <!-- Generator: Adobe Illustrator 29.3.1, SVG Export Plug-In . SVG Version: 2.1.0 Build 151)  -->
  <defs>
    <style>
      .st0 {
        fill: #e96640;
      }
    </style>
  </defs>
  <path class="st0" d="M83.2,1.6H16.8C9.2,1.6,3.1,7.7,3.1,15.4v69.3c0,7.6,6.1,13.8,13.8,13.8h66.4c7.6,0,13.8-6.1,13.8-13.8V15.4c0-7.6-6.1-13.8-13.8-13.8h0ZM69.5,7.6c5.3,0,9.7,4.3,9.7,9.7v51.7c0,5.3-4.3,9.7-9.7,9.7H29.5c-5.4,0-9.7-4.3-9.7-9.7V17.3c0-5.3,4.3-9.7,9.7-9.7,0,0,40,0,40,0ZM5.2,15.4c0-6.3,5.2-11.6,11.6-11.6h58.6l-6.1,1.7H29.5c-6.5,0-11.8,5.3-11.8,11.8v51.3l-12.5,13.3s0-66.6,0-66.6Z"/>
  <path class="st0" d="M-39,1.3h-87.8c-2.2,0-4,1.8-4,4v87.8c0,2.2,1.8,4,4,4H-39c2.2,0,4-1.8,4-4V5.3c0-2.2-1.8-4-4-4ZM-45.4,5.3l-8,4h-59l-8-4H-45.4ZM-55,13.3v63.9h-55.8V13.3h55.9,0ZM-126.8,6.5l12,6v65.8l-12,12s0-83.8,0-83.8ZM-124,93.1l12-12h58.2l12,12h-82.2ZM-51,78.3V12.5l12-6v83.8s-12-12-12-12Z"/>
</svg>