<?xml version="1.0" encoding="UTF-8"?>
<svg id="Layer_1" xmlns="http://www.w3.org/2000/svg" version="1.1" viewBox="0 0 100 100">
  <!-- Generator: Adobe Illustrator 29.3.1, SVG Export Plug-In . SVG Version: 2.1.0 Build 151)  -->
  <defs>
    <style>
      .st0 {
        fill: #e96640;
      }
    </style>
  </defs>
  <path class="st0" d="M80.8,5H19.2c-7.1,0-12.8,5.7-12.8,12.8v64.4c0,7.1,5.7,12.8,12.8,12.8h61.7c7.1,0,12.8-5.7,12.8-12.8V17.8c0-7.1-5.7-12.8-12.8-12.8h0ZM68.2,10.6c4.9,0,9,4,9,9v48.1c0,4.9-4,9-9,9H31c-5,0-9-4-9-9V19.6c0-4.9,4-9,9-9,0,0,37.2,0,37.2,0ZM8.4,17.8c0-5.9,4.8-10.8,10.8-10.8h54.5l-5.7,1.6H31c-6,0-11,4.9-11,11v47.7l-11.6,12.4s0-61.9,0-61.9Z"/>
  <path class="st0" d="M202.1,3h-64.1c-1.6,0-2.9,1.3-2.9,2.9v64.1c0,1.6,1.3,2.9,2.9,2.9h64.1c1.6,0,2.9-1.3,2.9-2.9V5.9c0-1.6-1.3-2.9-2.9-2.9ZM197.4,5.9l-5.8,2.9h-43l-5.8-2.9h54.7ZM190.4,11.7v46.6h-40.8V11.7h40.8ZM138,6.8l8.7,4.4v48l-8.7,8.7V6.8ZM140,70l8.7-8.7h42.5l8.7,8.7h-60ZM193.3,59.2V11.2l8.7-4.4v61.1s-8.7-8.7-8.7-8.7Z"/>
</svg>